<svg xmlns="http://www.w3.org/2000/svg" viewBox="0 0 64 64">
  <defs>
    <linearGradient id="a" x1="12" y1="16" x2="52" y2="48" gradientUnits="userSpaceOnUse">
      <stop offset="0" stop-color="#bd93f9"/>
      <stop offset="1" stop-color="#ff79c6"/>
    </linearGradient>
  </defs>
  <rect width="64" height="64" rx="14" fill="#282a36"/>
  <g fill="none" stroke="url(#a)" stroke-linecap="round" stroke-linejoin="round">
    <path d="M19 19 q-5 0 -5 6 l0 4 q0 3 -3 3 q3 0 3 3 l0 4 q0 6 5 6" stroke-width="3.5"/>
    <path d="M45 19 q5 0 5 6 l0 4 q0 3 3 3 q-3 0 -3 3 l0 4 q0 6 -5 6" stroke-width="3.5"/>
    <path d="M26 44 L32 20 L38 44" stroke-width="5"/>
    <line x1="28" y1="37" x2="36" y2="37" stroke-width="5"/>
  </g>
</svg>
